<svg width="24" height="25" viewBox="0 0 24 25" fill="none" xmlns="http://www.w3.org/2000/svg">
<g id="cil:building">
<path id="Vector" d="M20.625 22.25V1.25H3.375V22.25H0.75V23.75H23.25V22.25H20.625ZM19.125 22.25H12.75V19.25H11.25V22.25H4.875V2.75H19.125V22.25Z" fill="white"/>
<path id="Vector_2" d="M7.5 14.75H9V16.25H7.5V14.75ZM11.25 14.75H12.75V16.25H11.25V14.75ZM15 14.75H16.5V16.25H15V14.75ZM7.5 10.25H9V11.75H7.5V10.25ZM11.25 10.25H12.75V11.75H11.25V10.25ZM15 10.25H16.5V11.75H15V10.25ZM7.5 5.75H9V7.25H7.5V5.75ZM11.25 5.75H12.75V7.25H11.25V5.75ZM15 5.75H16.5V7.25H15V5.75Z" fill="white"/>
</g>
</svg>
