<svg width="82" height="27" viewBox="0 0 82 27" fill="none" xmlns="http://www.w3.org/2000/svg">
<path d="M30.6894 24.7066L25.6703 15.9626H23.5178V24.7066H18.9531V2.26721H27.4948C29.2552 2.26721 30.7551 2.57288 31.9945 3.18338C33.2331 3.79472 34.1624 4.61994 34.7825 5.65905C35.4018 6.69901 35.7119 7.8619 35.7119 9.14858C35.7119 10.6264 35.2763 11.9602 34.4067 13.1501C33.5389 14.3408 32.2457 15.1601 30.5288 15.6089L35.975 24.7066H30.6894ZM23.5178 12.5876H27.3308C28.5693 12.5876 29.4935 12.2937 30.1017 11.7051C30.7116 11.1148 31.0174 10.2938 31.0174 9.24289C31.0174 8.21472 30.7116 7.41645 30.1017 6.84805C29.4935 6.2805 28.5693 5.99588 27.3308 5.99588H23.5178V12.5876Z" fill="#DF000D"/>
<path d="M46.05 5.90161V11.5266H53.7136V15.0936H46.05V21.042H54.6908V24.7066H41.4854V2.23694H54.6908V5.90161H46.05Z" fill="#DF000D"/>
<path d="M68.4164 2.26721C70.8081 2.26721 72.911 2.72866 74.727 3.65157C76.5421 4.57279 77.9438 5.88473 78.9329 7.58907C79.9212 9.29341 80.4157 11.2706 80.4157 13.5206C80.4157 15.7706 79.9212 17.7368 78.9329 19.4184C77.9438 21.1009 76.5421 22.4027 74.727 23.3256C72.911 24.2468 70.8081 24.7066 68.4164 24.7066H60.4624V2.26721H68.4164ZM68.2558 20.8802C70.6449 20.8802 72.4925 20.2386 73.7977 18.9536C75.1028 17.6669 75.7554 15.8565 75.7554 13.5206C75.7554 11.183 75.1028 9.35572 73.7977 8.03705C72.4925 6.71921 70.6449 6.05988 68.2558 6.05988H65.0271V20.8802H68.2558Z" fill="#DF000D"/>
<path d="M5.10516 19.1992C5.81583 19.1992 6.37958 19.3937 6.79641 19.7819C7.21325 20.1684 7.42166 20.688 7.42166 21.3414C7.42166 21.5553 7.40458 21.7439 7.37041 21.9073C7.32941 22.1077 7.28585 22.2803 7.24058 22.426H3.16108C3.15425 22.4715 3.15083 22.5372 3.15083 22.6247C3.15083 22.9683 3.25333 23.2378 3.45833 23.4331C3.66333 23.6285 3.93325 23.7262 4.26808 23.7262C4.54996 23.7262 4.79425 23.6655 4.99925 23.5443C5.20425 23.4213 5.36996 23.2597 5.49808 23.0592H7.0185C6.76994 23.5897 6.38471 24.0251 5.86366 24.3661C5.34433 24.708 4.75496 24.8781 4.09725 24.8781C3.38658 24.8781 2.816 24.6794 2.3855 24.2819C1.95671 23.8845 1.74316 23.3447 1.74316 22.6618C1.74316 22.4648 1.76196 22.2568 1.80125 22.0387C1.90375 21.4686 2.11046 20.9692 2.42308 20.5398C2.73485 20.1086 3.12179 19.7777 3.58475 19.5461C4.04685 19.3154 4.55337 19.1992 5.10516 19.1992ZM5.96958 21.5806C5.98325 21.4753 5.99008 21.3987 5.99008 21.3515C5.99008 21.0349 5.88587 20.7882 5.67916 20.6105C5.4716 20.4312 5.19912 20.3411 4.86258 20.3411C4.50725 20.3411 4.18779 20.4522 3.90591 20.6745C3.62575 20.8951 3.42758 21.1966 3.31141 21.5806H5.96958Z" fill="#838383"/>
<path d="M11.8027 17.4409L10.4838 24.7871H9.0625L10.3813 17.4409H11.8027Z" fill="#838383"/>
</svg>
