<svg width="17" height="15" viewBox="0 0 17 15" fill="none" xmlns="http://www.w3.org/2000/svg">
<path d="M8.25 8.5C8.94036 8.5 9.5 7.94036 9.5 7.25C9.5 6.55964 8.94036 6 8.25 6C7.55964 6 7 6.55964 7 7.25C7 7.94036 7.55964 8.5 8.25 8.5Z" fill="#736BD0"/>
<path d="M11.0783 12.6034L10.0033 11.4867L9.94498 11.4284L8.88665 10.3701C8.7187 10.3995 8.54877 10.4162 8.37831 10.4201C7.9918 10.4256 7.60804 10.3542 7.24935 10.2101C6.89066 10.066 6.5642 9.85207 6.28893 9.58068C6.01366 9.30929 5.79509 8.98589 5.64591 8.62928C5.49674 8.27267 5.41994 7.88996 5.41998 7.50341C5.42384 7.33295 5.44056 7.16302 5.46998 6.99508L3.80331 5.32841L2.50331 4.06174C1.56275 4.94797 0.756986 5.96711 0.111646 7.08674C0.0385053 7.21343 0 7.35713 0 7.50341C0 7.64969 0.0385053 7.79339 0.111646 7.92008C0.636646 8.82841 3.44498 13.3367 8.35331 13.3367H8.56165C9.4846 13.3094 10.3956 13.1204 11.2533 12.7784L11.0783 12.6034ZM5.49498 2.30341L7.82831 4.63674C7.99626 4.60732 8.16619 4.59061 8.33665 4.58674C9.11019 4.58674 9.85206 4.89403 10.399 5.44102C10.946 5.988 11.2533 6.72986 11.2533 7.50341C11.2494 7.67387 11.2327 7.8438 11.2033 8.01174L13.4366 10.2451L14.1366 10.9451C15.089 10.0612 15.9061 9.04193 16.5616 7.92008C16.6348 7.79339 16.6733 7.64969 16.6733 7.50341C16.6733 7.35713 16.6348 7.21343 16.5616 7.08674C16.0283 6.16174 13.095 1.52008 8.11165 1.67008C7.18869 1.69745 6.27768 1.88643 5.41998 2.22841L5.49498 2.30341ZM15.595 13.5784L14.5116 12.5034L12.845 10.8367L4.91165 2.89508L3.68665 1.67008L2.26165 0.245076C2.18395 0.167378 2.0917 0.105744 1.99019 0.0636933C1.88867 0.0216431 1.77986 0 1.66998 0C1.5601 0 1.45129 0.0216431 1.34977 0.0636933C1.24825 0.105744 1.15601 0.167378 1.07831 0.245076C0.921392 0.401996 0.833236 0.614825 0.833236 0.836743C0.833236 1.05866 0.921392 1.27149 1.07831 1.42841L2.94498 3.33674L4.40331 4.75341L10.495 10.8367L10.5533 10.8951L11.67 12.0117L12.1616 12.5034L14.4116 14.7617C14.4891 14.8398 14.5813 14.9018 14.6828 14.9442C14.7844 14.9865 14.8933 15.0082 15.0033 15.0082C15.1133 15.0082 15.2222 14.9865 15.3238 14.9442C15.4253 14.9018 15.5175 14.8398 15.595 14.7617C15.6731 14.6843 15.7351 14.5921 15.7774 14.4906C15.8197 14.389 15.8415 14.2801 15.8415 14.1701C15.8415 14.0601 15.8197 13.9511 15.7774 13.8496C15.7351 13.748 15.6731 13.6559 15.595 13.5784Z" fill="#736BD0"/>
</svg>
