<svg width="17" height="12" viewBox="0 0 17 12" fill="none" xmlns="http://www.w3.org/2000/svg">
<path d="M10.2436 6.2069C9.597 6.2069 8.96492 6.02488 8.4273 5.68387C7.88968 5.34286 7.47065 4.85817 7.22321 4.29109C6.97577 3.72401 6.91103 3.10001 7.03718 2.498C7.16332 1.89599 7.47468 1.34301 7.93189 0.90898C8.3891 0.474955 8.97163 0.179381 9.60579 0.0596333C10.24 -0.0601139 10.8973 0.00134468 11.4947 0.236237C12.092 0.47113 12.6026 0.868907 12.9619 1.37927C13.3211 1.88963 13.5128 2.48965 13.5128 3.10345C13.5128 3.92653 13.1684 4.71591 12.5553 5.29792C11.9422 5.87993 11.1106 6.2069 10.2436 6.2069ZM10.2436 1.24138C9.85563 1.24138 9.47639 1.35059 9.15382 1.5552C8.83124 1.7598 8.57983 2.05062 8.43136 2.39087C8.2829 2.73111 8.24405 3.10551 8.31974 3.46672C8.39543 3.82793 8.58225 4.15972 8.85657 4.42013C9.1309 4.68055 9.48041 4.85789 9.86091 4.92974C10.2414 5.00159 10.6358 4.96471 10.9942 4.82378C11.3527 4.68284 11.659 4.44417 11.8745 4.13796C12.0901 3.83174 12.2051 3.47173 12.2051 3.10345C12.2051 2.6096 11.9985 2.13597 11.6306 1.78677C11.2627 1.43756 10.7638 1.24138 10.2436 1.24138ZM16.3462 12C16.1734 11.9979 16.0084 11.9318 15.8863 11.8158C15.7642 11.6999 15.6946 11.5433 15.6923 11.3793C15.6923 9.76552 14.7682 8.68966 10.2436 8.68966C5.71897 8.68966 4.79487 9.76552 4.79487 11.3793C4.79487 11.5439 4.72598 11.7018 4.60336 11.8182C4.48074 11.9346 4.31444 12 4.14103 12C3.96761 12 3.80131 11.9346 3.67869 11.8182C3.55607 11.7018 3.48718 11.5439 3.48718 11.3793C3.48718 7.44828 8.22103 7.44828 10.2436 7.44828C12.2662 7.44828 17 7.44828 17 11.3793C16.9977 11.5433 16.9281 11.6999 16.806 11.8158C16.6839 11.9318 16.5189 11.9979 16.3462 12ZM5.29179 6.87724H5.01282C4.31918 6.81359 3.68058 6.49097 3.23751 5.98035C2.79445 5.46974 2.5832 4.81295 2.65026 4.15448C2.71731 3.49602 3.05716 2.8898 3.59506 2.4692C4.13295 2.0486 4.82482 1.84807 5.51846 1.91173C5.6074 1.91535 5.69462 1.93619 5.77478 1.97294C5.85494 2.0097 5.92635 2.06161 5.98463 2.12549C6.04291 2.18937 6.08684 2.26388 6.11372 2.34444C6.1406 2.425 6.14986 2.50993 6.14094 2.59401C6.13203 2.6781 6.10512 2.75957 6.06186 2.83343C6.01861 2.90729 5.95992 2.97199 5.88939 3.02356C5.81887 3.07513 5.73799 3.11249 5.65173 3.13334C5.56546 3.15419 5.47561 3.1581 5.38769 3.14483C5.21751 3.12872 5.04565 3.14533 4.88239 3.19368C4.71912 3.24202 4.56779 3.32111 4.43744 3.42621C4.30503 3.52759 4.19522 3.65298 4.11439 3.79507C4.03357 3.93715 3.98335 4.09309 3.96667 4.25379C3.94864 4.41651 3.9649 4.58101 4.01451 4.7377C4.06412 4.89438 4.14608 5.04014 4.25562 5.16646C4.36516 5.29278 4.50009 5.39714 4.65253 5.47347C4.80499 5.5498 4.97191 5.59656 5.14359 5.61103C5.42739 5.63408 5.71151 5.57028 5.95436 5.42897C6.10234 5.34227 6.28053 5.31492 6.44975 5.35295C6.61896 5.39097 6.76534 5.49125 6.85667 5.63172C6.948 5.7722 6.9768 5.94136 6.93675 6.10199C6.89669 6.26263 6.79105 6.40158 6.64308 6.48828C6.23874 6.73309 5.77127 6.86765 5.29179 6.87724ZM0.653846 11.3793C0.481137 11.3772 0.316138 11.3111 0.194004 11.1951C0.07187 11.0792 0.00225792 10.9226 0 10.7586C0 8.52414 0.627692 7.03448 3.70513 7.03448C3.87854 7.03448 4.04485 7.09988 4.16747 7.21628C4.29009 7.33268 4.35897 7.49056 4.35897 7.65517C4.35897 7.81979 4.29009 7.97766 4.16747 8.09407C4.04485 8.21047 3.87854 8.27586 3.70513 8.27586C1.65641 8.27586 1.30769 8.89655 1.30769 10.7586C1.30543 10.9226 1.23582 11.0792 1.11369 11.1951C0.991554 11.3111 0.826555 11.3772 0.653846 11.3793Z" fill="white"/>
</svg>
