<svg width="142" height="48" viewBox="0 0 142 48" fill="none" xmlns="http://www.w3.org/2000/svg">
<path d="M42.4363 29.5311V48H38.4189V8.4955H50.0247C57.8363 8.4955 63.5277 11.3412 63.5277 19.0412C63.5277 24.8999 59.1755 28.5825 53.4283 29.1963L64.9784 48H60.0682L49.1319 29.5311H42.4363ZM42.4363 11.9549V26.0717H49.4109C55.8276 26.0717 59.5102 23.7282 59.5102 19.0412C59.5102 13.852 55.5486 11.9549 49.5783 11.9549H42.4363ZM75.8384 29.1963V44.429H96.9855V48H71.821V8.4955H96.316V12.0665H75.8384V25.6811H94.9768V29.1963H75.8384ZM104.842 48V8.4955H117.954C127.83 8.4955 138.711 15.0796 138.711 28.2478C138.711 41.4159 127.83 48 117.954 48H104.842ZM108.859 12.0665V44.429H116.838C128.723 44.429 134.47 36.3942 134.47 28.2478C134.47 20.1013 128.723 12.0665 116.838 12.0665H108.859Z" fill="#DF000D"/>
<path d="M13.0943 41.6229H3.5236C3.49787 41.7773 3.49787 41.9059 3.49787 42.0346C3.49787 43.9641 5.04153 45.3534 7.04829 45.3534C8.77204 45.3534 10.0327 44.5559 10.8817 43.501L12.2967 44.8389C10.856 46.4854 8.95214 47.3345 6.81674 47.3345C3.57505 47.3345 1.15665 45.3534 1.15665 41.9316C1.15665 37.8667 4.21824 34.4706 8.28322 34.4706C11.3705 34.4706 13.3516 36.2716 13.3516 39.3074C13.3516 39.7962 13.2744 40.8511 13.0943 41.6229ZM3.78087 39.8734H11.0618C11.0875 39.6419 11.1133 39.3332 11.1133 39.1016C11.1133 37.5322 10.0327 36.3487 8.10312 36.3487C5.78763 36.3487 4.19252 38.1239 3.78087 39.8734ZM21.5183 27.5499L18.0708 47H15.6781L19.0999 27.5499H21.5183Z" fill="#DF000D"/>
</svg>
