<svg width="24" height="24" viewBox="0 0 24 24" fill="none" xmlns="http://www.w3.org/2000/svg">
<path d="M14 12.25C13.2583 12.25 12.5333 12.0301 11.9166 11.618C11.2999 11.206 10.8193 10.6203 10.5355 9.93506C10.2516 9.24984 10.1774 8.49584 10.3221 7.76841C10.4667 7.04098 10.8239 6.3728 11.3483 5.84835C11.8728 5.3239 12.541 4.96675 13.2684 4.82206C13.9958 4.67736 14.7498 4.75162 15.4351 5.03545C16.1203 5.31928 16.706 5.79993 17.118 6.41661C17.5301 7.0333 17.75 7.75832 17.75 8.5C17.75 9.49456 17.3549 10.4484 16.6517 11.1517C15.9484 11.8549 14.9946 12.25 14 12.25ZM14 6.25C13.555 6.25 13.12 6.38196 12.75 6.62919C12.38 6.87643 12.0916 7.22783 11.9213 7.63896C11.751 8.0501 11.7064 8.5025 11.7932 8.93895C11.88 9.37541 12.0943 9.77632 12.409 10.091C12.7237 10.4057 13.1246 10.62 13.561 10.7068C13.9975 10.7936 14.4499 10.749 14.861 10.5787C15.2722 10.4084 15.6236 10.12 15.8708 9.75003C16.118 9.38002 16.25 8.94501 16.25 8.5C16.25 7.90326 16.0129 7.33097 15.591 6.90901C15.169 6.48705 14.5967 6.25 14 6.25ZM21 19.25C20.8019 19.2474 20.6126 19.1676 20.4725 19.0275C20.3324 18.8874 20.2526 18.6981 20.25 18.5C20.25 16.55 19.19 15.25 14 15.25C8.81 15.25 7.75 16.55 7.75 18.5C7.75 18.6989 7.67098 18.8897 7.53033 19.0303C7.38968 19.171 7.19891 19.25 7 19.25C6.80109 19.25 6.61032 19.171 6.46967 19.0303C6.32902 18.8897 6.25 18.6989 6.25 18.5C6.25 13.75 11.68 13.75 14 13.75C16.32 13.75 21.75 13.75 21.75 18.5C21.7474 18.6981 21.6676 18.8874 21.5275 19.0275C21.3874 19.1676 21.1981 19.2474 21 19.25ZM8.32 13.06H8C7.20435 12.9831 6.47184 12.5933 5.96362 11.9763C5.4554 11.3593 5.21309 10.5657 5.29 9.77C5.36691 8.97435 5.75675 8.24184 6.37374 7.73362C6.99074 7.2254 7.78435 6.98309 8.58 7.06C8.68202 7.06439 8.78207 7.08956 8.87402 7.13397C8.96597 7.17839 9.04788 7.24111 9.11473 7.3183C9.18158 7.39549 9.23196 7.48552 9.26279 7.58287C9.29363 7.68021 9.30425 7.78283 9.29402 7.88443C9.2838 7.98603 9.25293 8.08448 9.20331 8.17372C9.1537 8.26297 9.08638 8.34115 9.00548 8.40347C8.92459 8.46578 8.83182 8.51092 8.73286 8.53612C8.63391 8.56132 8.53085 8.56604 8.43 8.55C8.23479 8.53054 8.03766 8.55061 7.85038 8.60903C7.66311 8.66745 7.48952 8.76301 7.34 8.89C7.18813 9.01251 7.06216 9.16402 6.96945 9.33571C6.87674 9.50739 6.81914 9.69582 6.8 9.89C6.77932 10.0866 6.79798 10.2854 6.85488 10.4747C6.91179 10.664 7.0058 10.8402 7.13145 10.9928C7.2571 11.1454 7.41186 11.2715 7.58673 11.3638C7.7616 11.456 7.95307 11.5125 8.15 11.53C8.47554 11.5578 8.80144 11.4808 9.08 11.31C9.24974 11.2052 9.45414 11.1722 9.64824 11.2181C9.84234 11.2641 10.0102 11.3853 10.115 11.555C10.2198 11.7247 10.2528 11.9291 10.2069 12.1232C10.1609 12.3173 10.0397 12.4852 9.87 12.59C9.4062 12.8858 8.86999 13.0484 8.32 13.06ZM3 18.5C2.80189 18.4974 2.61263 18.4176 2.47253 18.2775C2.33244 18.1374 2.25259 17.9481 2.25 17.75C2.25 15.05 2.97 13.25 6.5 13.25C6.69891 13.25 6.88968 13.329 7.03033 13.4697C7.17098 13.6103 7.25 13.8011 7.25 14C7.25 14.1989 7.17098 14.3897 7.03033 14.5303C6.88968 14.671 6.69891 14.75 6.5 14.75C4.15 14.75 3.75 15.5 3.75 17.75C3.74741 17.9481 3.66756 18.1374 3.52747 18.2775C3.38737 18.4176 3.19811 18.4974 3 18.5Z" fill="white"/>
</svg>
