<svg width="40" height="40" viewBox="0 0 40 40" fill="none" xmlns="http://www.w3.org/2000/svg">
<g clip-path="url(#clip0_68_1892)">
<path d="M36.7002 30.0707L36.6999 30.0712C35.7143 31.7052 34.4944 33.1825 33.0869 34.4564L33.0867 34.4565C32.2013 35.2586 31.2425 35.9806 30.2216 36.6093L30.2208 36.6098C29.9006 36.8078 29.5723 36.9965 29.237 37.177L29.2366 37.1773C28.4767 37.5874 27.6872 37.9482 26.8702 38.2552H26.8694L26.7851 38.2865C25.0299 38.9385 23.1546 39.3455 21.2003 39.4632L21.1995 39.4632C20.8038 39.4877 20.4042 39.5 20.0006 39.5H19.9818C19.5847 39.5 19.1915 39.4877 18.8023 39.4633L18.8011 39.4632C16.8392 39.3443 14.9564 38.936 13.194 38.2791L13.1938 38.2791C12.3542 37.9665 11.5415 37.5976 10.762 37.1772L10.7618 37.1771C10.4295 36.9981 10.1023 36.8093 9.78247 36.612L9.7823 36.6119C8.75985 35.9818 7.79983 35.2597 6.91329 34.4566L6.91327 34.4565C5.50675 33.1825 4.28556 31.705 3.29871 30.071L3.29864 30.0708C1.52243 27.1314 0.5 23.686 0.5 20C0.5 9.23125 9.23028 0.5 20.0006 0.5C30.7709 0.5 39.5 9.23121 39.5 20C39.5 23.686 38.4776 27.1314 36.7002 30.0707Z" fill="#FD853A" stroke="white"/>
<path d="M20.0183 8.1994V39.9623H18.7709C16.759 39.8403 14.8276 39.4216 13.0194 38.7476C12.1581 38.427 11.3244 38.0485 10.5247 37.6172C10.1839 37.4336 9.8482 37.24 9.52002 37.0376C8.47132 36.3913 7.48676 35.6507 6.57764 34.8271C6.75619 23.1636 8.02619 15.5727 10.7485 12.0219C16.0649 5.08611 19.8095 8.1994 19.8095 8.1994H20.0183Z" fill="black"/>
<path d="M33.4226 34.8271C32.5147 35.6494 31.5314 36.39 30.484 37.0351C30.1545 37.2388 29.8175 37.4324 29.4742 37.6172C28.6682 38.0523 27.8295 38.4333 26.9607 38.7552H26.9594C25.1588 39.4241 23.2349 39.8415 21.2306 39.9623H19.9819V8.1994H20.1907C20.1907 8.1994 23.9353 5.08611 29.2517 12.0219C31.974 15.5727 33.244 23.1636 33.4226 34.8271Z" fill="black"/>
<path d="M21.8327 30.5359H18.1309V34.2326H21.8327V30.5359Z" fill="#FDDCAB"/>
<path d="M20.0346 34.2323V39.9622H18.7709C16.759 39.8402 14.8276 39.4215 13.0194 38.7476C12.1581 38.4269 11.3244 38.0485 10.5247 37.6172C10.1839 37.4336 9.84821 37.24 9.52002 37.0375C10.863 36.097 12.8409 35.154 15.7216 34.5881C15.7216 34.5881 15.7355 34.5856 15.7594 34.5806C16.0197 34.5303 16.2887 34.4825 16.5641 34.4373C17.0608 34.358 17.5826 34.2889 18.1309 34.2323H20.0346Z" fill="#FDDCAB"/>
<path d="M30.4839 37.035C30.1544 37.2387 29.8174 37.4324 29.4742 37.6172C28.6682 38.0522 27.8295 38.4332 26.9606 38.7551H26.9593C25.1587 39.4241 23.2348 39.8415 21.2305 39.9622H20.0347V34.2323H21.8315C22.3835 34.2889 22.9104 34.3593 23.4121 34.4398C23.7013 34.4863 23.9817 34.5366 24.2546 34.5907C27.1328 35.1565 29.1246 36.097 30.4839 37.035Z" fill="#FFEAD5"/>
<path d="M19.9932 38.553V40.0003H19.9819C19.5745 40.0003 19.1709 39.9877 18.771 39.9626C16.7591 39.8406 14.8277 39.4219 13.0195 38.7479C13.9299 37.2554 15.3759 34.9192 15.7217 34.5885C15.7217 34.5885 15.7356 34.586 15.7595 34.581C15.8902 34.5533 16.3291 34.464 16.5642 34.4376C16.5642 34.4376 15.1924 38.3921 19.9819 38.553H19.9932Z" fill="#97F8C0"/>
<path d="M26.9594 38.7555C25.1588 39.4244 23.2349 39.8419 21.2306 39.9626C20.8244 39.9877 20.4145 40.0003 20.0008 40.0003H19.9819V38.553H19.9932C20.0071 38.5518 20.0209 38.5518 20.0347 38.5505C24.7061 38.372 23.4487 34.5495 23.4122 34.4401C23.4109 34.4389 23.4109 34.4376 23.4109 34.4376C23.6901 34.4691 24.2522 34.5885 24.2522 34.5885L24.2547 34.591C24.6042 34.9305 26.0515 37.2655 26.9594 38.7555Z" fill="#CAFBDA"/>
<path d="M8.68008 19.4671C8.90265 22.0184 10.5159 22.1718 10.5159 22.1718L10.5398 17.0643C10.5398 17.0643 8.455 16.9146 8.68008 19.4671Z" fill="#FDDCAB"/>
<path d="M10.4658 11.3882V21.9477C10.4658 27.2149 14.736 31.4837 20.0021 31.4837V11.3882H10.4658Z" fill="#FDDCAB"/>
<path d="M31.2797 19.3901C31.0571 21.9413 29.4438 22.0947 29.4438 22.0947L29.4199 16.9872C29.4199 16.9872 31.5047 16.8376 31.2797 19.3901Z" fill="#FFEAD5"/>
<path d="M20.002 11.3882V31.485C25.2693 31.485 29.5383 27.2149 29.5383 21.949V11.3882H20.002Z" fill="#FFEAD5"/>
<path d="M30.2199 14.1028C30.2199 14.6121 30.1822 15.115 30.1093 15.6042H9.96026C9.88733 15.115 9.84961 14.6121 9.84961 14.1028C9.84961 13.3899 9.92254 12.6933 10.0621 12.0206C11.024 7.39468 15.122 3.91675 20.0348 3.91675C24.9475 3.91675 29.0467 7.39468 30.0074 12.0206C30.1482 12.6933 30.2212 13.3886 30.2212 14.1028H30.2199Z" fill="#CAFBDA"/>
<path d="M10.433 13.8951C9.56535 15.1311 10.4657 17.0612 10.4657 17.0612L16.495 14.8331C16.495 14.8331 11.3006 12.6591 10.433 13.8938V13.8951Z" fill="black"/>
<path d="M30.2385 12.0216H9.79902C9.25526 12.0216 8.81445 12.4624 8.81445 13.0061V14.6206C8.81445 15.1644 9.25526 15.6052 9.79902 15.6052H30.2385C30.7823 15.6052 31.2231 15.1644 31.2231 14.6206V13.0061C31.2231 12.4624 30.7823 12.0216 30.2385 12.0216Z" fill="#97F8C0"/>
<path d="M36.2723 29.812L36.2717 29.8129C35.3115 31.4049 34.1229 32.8444 32.7514 34.0857L32.7511 34.086C31.888 34.8677 30.9538 35.5712 29.9594 36.1836L29.9579 36.1845C29.6468 36.3769 29.3271 36.5606 29 36.7368L28.9991 36.7373C28.2758 37.1277 27.5252 37.472 26.7492 37.7664L26.611 37.8178C24.9013 38.4529 23.0744 38.8494 21.1703 38.9641L21.1686 38.9642C20.7834 38.988 20.3941 39 20.0006 39H19.9818C19.5949 39 19.2122 38.9881 18.8336 38.9642L18.8314 38.9641C16.9193 38.8482 15.0852 38.4504 13.3687 37.8106L13.3683 37.8105C12.5503 37.506 11.7587 37.1466 10.9993 36.7371L10.9989 36.7369C10.6752 36.5625 10.3564 36.3786 10.045 36.1865L10.0446 36.1863C9.04842 35.5723 8.11294 34.8687 7.24898 34.086L7.24894 34.086C5.87818 32.8443 4.68818 31.4045 3.72671 29.8125L3.72658 29.8123C1.99616 26.9486 1 23.5923 1 20C1 9.50739 9.50643 1 20.0006 1C30.4947 1 39 9.5073 39 20C39 23.5922 38.0038 26.9485 36.2723 29.812Z" stroke="white" stroke-width="2"/>
</g>
<defs>
<clipPath id="clip0_68_1892">
<rect width="40" height="40" fill="white"/>
</clipPath>
</defs>
</svg>
