<svg width="24" height="24" viewBox="0 0 24 24" fill="none" xmlns="http://www.w3.org/2000/svg">
<path d="M14.4847 5.22666C14.0685 5.22966 13.6552 5.24991 13.2188 5.36691C12.7431 5.49566 12.2919 5.70165 11.883 5.97666C11.3085 5.63916 10.752 5.36166 10.2188 5.29641C9.5565 5.21466 8.9415 5.25891 8.22675 5.27391C7.37925 5.29116 6.8265 5.72391 5.9295 6.07041C5.03325 6.41541 3.879 6.74991 2.25 6.74991H1.5V13.9687L1.92225 14.1794L3.3045 14.8597L8.22675 20.3437L8.25 20.3669C8.8125 20.9234 9.5715 21.0614 10.242 21.0232C10.9132 20.9857 11.5433 20.7892 12.0465 20.4847C13.1543 19.8164 16.1715 17.7187 16.1715 17.7187L16.242 17.6714L16.2892 17.6249C16.6462 17.2702 16.8255 16.8374 16.9455 16.3829L19.8278 14.9294L21.984 14.2034L22.5 14.0384V6.74991H21.75C20.4892 6.75932 19.2389 6.52027 18.0705 6.04641C17.1735 5.69616 16.629 5.26791 15.7725 5.24991C15.315 5.24091 14.9002 5.22366 14.4847 5.22666ZM14.5072 6.72666C14.8448 6.72366 15.2347 6.74166 15.7267 6.74991C15.8055 6.75291 16.5262 7.06041 17.5312 7.45341C18.381 7.78716 19.5615 8.08341 21 8.17941V12.9607L19.2653 13.5472H19.2188L19.1715 13.5697L16.899 14.7187C16.7784 14.3706 16.5868 14.0514 16.3365 13.7812L16.2892 13.7107L13.1017 9.79716L12.633 9.21066L12.0465 9.67941L10.0312 11.3204C9.35475 11.7892 8.8065 11.6542 8.25 11.3909C8.08875 11.3144 8.09775 11.2912 7.96875 11.2034L11.391 8.36691L11.4375 8.32041C12.4537 7.31241 13.0785 6.96366 13.617 6.82041C13.887 6.74691 14.1705 6.72966 14.5072 6.72666ZM9.282 6.74991C9.53224 6.73977 9.78288 6.74754 10.032 6.77316C10.2285 6.79641 10.4513 6.96366 10.6418 7.03116C10.5653 7.10166 10.5097 7.14216 10.4303 7.21866L10.3837 7.26591L6.282 10.6634L5.649 11.1794L6.2115 11.7652C6.2115 11.7652 6.75375 12.3517 7.5945 12.7499C8.43525 13.1482 9.7335 13.3739 10.899 12.5624L10.9462 12.5152L12.399 11.3204L15.165 14.7187L15.1882 14.7659L15.2115 14.7884C15.7065 15.2782 15.6952 16.0484 15.2115 16.5472C15.2055 16.5524 15.2175 16.5644 15.2115 16.5697C15.2055 16.5734 15.1065 16.6319 15.0945 16.6409L14.1097 15.3044L12.891 16.1954L13.8525 17.4839C13.4625 17.7479 13.287 17.8859 12.8678 18.1642L11.8605 16.8044L10.641 17.6954L11.6025 18.9839C11.517 19.0364 11.3415 19.1542 11.274 19.1954C11.037 19.3387 10.5795 19.4999 10.1722 19.5232C9.789 19.5442 9.49575 19.4557 9.3525 19.3357L9.32925 19.3124L4.31325 13.7579L4.2195 13.6402L3 13.0312V8.17941C4.4325 8.08566 5.622 7.80141 6.46875 7.47666C7.47075 7.09266 8.18625 6.77616 8.27325 6.77316L9.282 6.74991Z" fill="#333333"/>
</svg>
