<svg width="146" height="57" viewBox="0 0 146 57" fill="none" xmlns="http://www.w3.org/2000/svg">
<path d="M10.538 5.24683C10.4551 4.47149 10.106 3.8678 9.49042 3.43575C8.88081 3.00369 8.08772 2.78766 7.11116 2.78766C6.42461 2.78766 5.83571 2.89124 5.34447 3.09839C4.85323 3.30554 4.4774 3.58667 4.21699 3.94178C3.95657 4.2969 3.8234 4.70232 3.81748 5.15805C3.81748 5.53684 3.9033 5.86532 4.07494 6.14349C4.2525 6.42166 4.4922 6.6584 4.79405 6.85372C5.09589 7.04311 5.43029 7.20291 5.79724 7.33312C6.16419 7.46333 6.5341 7.57282 6.90697 7.6616L8.61152 8.08773C9.29807 8.24754 9.95799 8.46356 10.5913 8.73582C11.2305 9.00807 11.8016 9.35135 12.3047 9.76565C12.8137 10.1799 13.2162 10.6801 13.5121 11.266C13.808 11.8519 13.956 12.5385 13.956 13.3257C13.956 14.391 13.6837 15.3291 13.1392 16.1399C12.5947 16.9449 11.8075 17.5752 10.7777 18.0309C9.7538 18.4807 8.51386 18.7056 7.0579 18.7056C5.64336 18.7056 4.41526 18.4866 3.37359 18.0487C2.33784 17.6107 1.527 16.9715 0.941062 16.1311C0.361043 15.2906 0.0473596 14.2667 1.11312e-05 13.0593H3.24042C3.28777 13.6926 3.48308 14.2194 3.82636 14.6396C4.16964 15.0598 4.61649 15.3735 5.16691 15.5806C5.72326 15.7878 6.34471 15.8914 7.03126 15.8914C7.74741 15.8914 8.37477 15.7848 8.91336 15.5718C9.45787 15.3528 9.88401 15.0509 10.1918 14.6662C10.4995 14.2756 10.6564 13.8199 10.6623 13.299C10.6564 12.8255 10.5173 12.4349 10.245 12.1272C9.97279 11.8135 9.59104 11.5531 9.0998 11.3459C8.61448 11.1328 8.04629 10.9434 7.39525 10.7777L5.32672 10.2451C3.82932 9.86034 2.64561 9.27737 1.77558 8.49612C0.91147 7.70895 0.479415 6.66432 0.479415 5.36224C0.479415 4.29098 0.769424 3.35289 1.34944 2.54796C1.93538 1.74304 2.73143 1.11863 3.73758 0.674737C4.74374 0.224927 5.88306 2.15173e-05 7.15555 2.15173e-05C8.4458 2.15173e-05 9.57624 0.224927 10.5469 0.674737C11.5234 1.11863 12.2899 1.73712 12.8462 2.53021C13.4026 3.31737 13.6896 4.22291 13.7074 5.24683H10.538ZM16.7503 18.4304V4.79406H19.822V7.11117H19.9818C20.2659 6.32992 20.7364 5.72031 21.3934 5.28234C22.0503 4.83845 22.8346 4.6165 23.746 4.6165C24.6693 4.6165 25.4476 4.8414 26.0809 5.29122C26.7201 5.73511 27.1699 6.34176 27.4303 7.11117H27.5724C27.8742 6.3536 28.3832 5.7499 29.0994 5.30009C29.8214 4.84436 30.6767 4.6165 31.6651 4.6165C32.9198 4.6165 33.9437 5.01304 34.7368 5.80613C35.5299 6.59922 35.9264 7.7563 35.9264 9.27737V18.4304H32.7038V9.77452C32.7038 8.92817 32.4789 8.30968 32.029 7.91906C31.5792 7.52251 31.0288 7.32424 30.3778 7.32424C29.6024 7.32424 28.9958 7.5669 28.5578 8.05222C28.1258 8.53163 27.9097 9.15604 27.9097 9.92545V18.4304H24.7581V9.64136C24.7581 8.93705 24.545 8.37479 24.1189 7.95457C23.6987 7.53435 23.1482 7.32424 22.4676 7.32424C22.006 7.32424 21.5857 7.44261 21.207 7.67935C20.8282 7.91018 20.5263 8.23866 20.3014 8.66479C20.0765 9.08501 19.9641 9.57625 19.9641 10.1385V18.4304H16.7503ZM43.1108 18.7056C42.2467 18.7056 41.4684 18.5518 40.7759 18.244C40.0894 17.9303 39.5449 17.4687 39.1424 16.859C38.7459 16.2494 38.5476 15.4978 38.5476 14.6041C38.5476 13.8347 38.6896 13.1984 38.9737 12.6953C39.2578 12.1923 39.6455 11.7898 40.1367 11.4879C40.628 11.1861 41.1814 10.9582 41.7969 10.8044C42.4183 10.6446 43.0605 10.5291 43.7234 10.4581C44.5224 10.3753 45.1705 10.3013 45.6676 10.2362C46.1648 10.1651 46.5258 10.0586 46.7507 9.91657C46.9815 9.76861 47.097 9.54074 47.097 9.23298V9.17971C47.097 8.51091 46.8987 7.99304 46.5021 7.62609C46.1056 7.25914 45.5345 7.07566 44.7887 7.07566C44.0016 7.07566 43.3771 7.2473 42.9155 7.59058C42.4598 7.93385 42.152 8.33927 41.9922 8.80684L38.9915 8.3807C39.2282 7.55211 39.6189 6.85963 40.1634 6.30329C40.7079 5.74103 41.3737 5.32081 42.1609 5.04264C42.948 4.75854 43.8181 4.6165 44.771 4.6165C45.4279 4.6165 46.0819 4.69344 46.733 4.84732C47.384 5.00121 47.9788 5.2557 48.5174 5.61082C49.056 5.96001 49.4881 6.43646 49.8136 7.04015C50.145 7.64384 50.3107 8.39846 50.3107 9.304V18.4304H47.2212V16.5572H47.1147C46.9194 16.936 46.6442 17.2911 46.2891 17.6225C45.9399 17.9481 45.4989 18.2114 44.9663 18.4127C44.4395 18.608 43.821 18.7056 43.1108 18.7056ZM43.9453 16.3441C44.5904 16.3441 45.1498 16.2169 45.6232 15.9624C46.0967 15.702 46.4607 15.3587 46.7152 14.9326C46.9756 14.5064 47.1058 14.0418 47.1058 13.5387V11.9318C47.0052 12.0147 46.8336 12.0916 46.5909 12.1627C46.3542 12.2337 46.0878 12.2958 45.7919 12.3491C45.496 12.4024 45.203 12.4497 44.913 12.4911C44.623 12.5326 44.3715 12.5681 44.1584 12.5977C43.679 12.6628 43.2499 12.7693 42.8711 12.9173C42.4923 13.0652 42.1934 13.2724 41.9744 13.5387C41.7555 13.7991 41.646 14.1365 41.646 14.5508C41.646 15.1427 41.862 15.5895 42.294 15.8914C42.7261 16.1932 43.2765 16.3441 43.9453 16.3441ZM53.5423 18.4304V4.79406H56.6584V7.06678H56.8004C57.049 6.27961 57.4752 5.67296 58.0788 5.24683C58.6885 4.81477 59.3839 4.59874 60.1651 4.59874C60.3427 4.59874 60.541 4.60762 60.76 4.62538C60.9849 4.63721 61.1713 4.65793 61.3193 4.68752V7.64384C61.1831 7.59649 60.9671 7.55506 60.6712 7.51955C60.3812 7.47812 60.1 7.45741 59.8278 7.45741C59.2418 7.45741 58.7151 7.58466 58.2475 7.83916C57.7859 8.08773 57.4219 8.43397 57.1556 8.87786C56.8892 9.32176 56.756 9.83371 56.756 10.4137V18.4304H53.5423ZM70.9961 4.79406V7.27985H63.157V4.79406H70.9961ZM65.0923 1.52701H68.3061V14.3289C68.3061 14.7609 68.3712 15.0924 68.5014 15.3232C68.6376 15.5481 68.8151 15.702 69.0341 15.7848C69.2531 15.8677 69.4958 15.9091 69.7621 15.9091C69.9633 15.9091 70.1468 15.8943 70.3125 15.8647C70.4841 15.8351 70.6144 15.8085 70.7031 15.7848L71.2447 18.2973C71.073 18.3564 70.8274 18.4215 70.5078 18.4926C70.1941 18.5636 69.8094 18.605 69.3537 18.6169C68.5488 18.6405 67.8238 18.5192 67.1786 18.2529C66.5335 17.9806 66.0216 17.5604 65.6428 16.9922C65.2699 16.424 65.0864 15.7138 65.0923 14.8615V1.52701Z" fill="black"/>
<path d="M28.9299 41.2789C28.9299 44.544 28.3184 47.3405 27.0952 49.6685C25.8819 51.9866 24.2247 53.7621 22.1236 54.9952C20.0324 56.2282 17.66 56.8447 15.0065 56.8447C12.353 56.8447 9.97575 56.2282 7.87466 54.9952C5.78343 53.7523 4.12623 51.9718 2.90307 49.6537C1.68976 47.3257 1.08311 44.5341 1.08311 41.2789C1.08311 38.0138 1.68976 35.2222 2.90307 32.9041C4.12623 30.5762 5.78343 28.7957 7.87466 27.5626C9.97575 26.3296 12.353 25.7131 15.0065 25.7131C17.66 25.7131 20.0324 26.3296 22.1236 27.5626C24.2247 28.7957 25.8819 30.5762 27.0952 32.9041C28.3184 35.2222 28.9299 38.0138 28.9299 41.2789ZM23.4109 41.2789C23.4109 38.9805 23.0508 37.0422 22.3307 35.4639C21.6205 33.8758 20.6341 32.6773 19.3715 31.8684C18.1088 31.0497 16.6539 30.6403 15.0065 30.6403C13.3592 30.6403 11.9042 31.0497 10.6416 31.8684C9.37896 32.6773 8.3876 33.8758 7.66751 35.4639C6.95728 37.0422 6.60217 38.9805 6.60217 41.2789C6.60217 43.5773 6.95728 45.5205 7.66751 47.1087C8.3876 48.687 9.37896 49.8855 10.6416 50.7042C11.9042 51.5131 13.3592 51.9175 15.0065 51.9175C16.6539 51.9175 18.1088 51.5131 19.3715 50.7042C20.6341 49.8855 21.6205 48.687 22.3307 47.1087C23.0508 45.5205 23.4109 43.5773 23.4109 41.2789ZM34.1198 56.4304V26.1274H53.5327V30.7291H39.6092V38.9559H52.201V43.5575H39.6092V56.4304H34.1198ZM58.5338 56.4304V26.1274H77.9467V30.7291H64.0233V38.9559H76.615V43.5575H64.0233V56.4304H58.5338ZM88.4374 26.1274V56.4304H82.9479V26.1274H88.4374ZM120.32 36.3517H114.786C114.628 35.4442 114.337 34.6403 113.913 33.9399C113.489 33.2297 112.961 32.6279 112.33 32.1347C111.699 31.6415 110.978 31.2716 110.17 31.025C109.371 30.7685 108.507 30.6403 107.58 30.6403C105.933 30.6403 104.473 31.0546 103.2 31.8832C101.928 32.7019 100.932 33.9054 100.212 35.4935C99.4915 37.0718 99.1315 39.0003 99.1315 41.2789C99.1315 43.597 99.4915 45.5501 100.212 47.1383C100.942 48.7166 101.938 49.9101 103.2 50.719C104.473 51.518 105.928 51.9175 107.565 51.9175C108.473 51.9175 109.321 51.7991 110.11 51.5624C110.909 51.3158 111.625 50.9558 112.256 50.4823C112.897 50.0088 113.435 49.4268 113.869 48.7363C114.313 48.0458 114.618 47.2567 114.786 46.3689L120.32 46.3985C120.113 47.8386 119.664 49.19 118.973 50.4527C118.293 51.7153 117.4 52.83 116.295 53.7967C115.19 54.7535 113.898 55.5032 112.419 56.0457C110.939 56.5784 109.297 56.8447 107.491 56.8447C104.828 56.8447 102.451 56.2282 100.36 54.9952C98.2683 53.7621 96.621 51.9816 95.4176 49.6537C94.2141 47.3257 93.6124 44.5341 93.6124 41.2789C93.6124 38.0138 94.2191 35.2222 95.4324 32.9041C96.6457 30.5762 98.2979 28.7957 100.389 27.5626C102.48 26.3296 104.848 25.7131 107.491 25.7131C109.178 25.7131 110.747 25.9498 112.197 26.4233C113.647 26.8968 114.939 27.5922 116.073 28.5096C117.208 29.4171 118.14 30.5318 118.87 31.8536C119.61 33.1655 120.093 34.6649 120.32 36.3517ZM125.347 56.4304V26.1274H145.056V30.7291H130.836V38.9559H144.035V43.5575H130.836V51.8287H145.174V56.4304H125.347Z" fill="#E40000"/>
</svg>
