<svg width="24" height="24" viewBox="0 0 24 24" fill="none" xmlns="http://www.w3.org/2000/svg">
<path d="M18.3555 4.35164H16.014V3.85667C16.014 3.38074 15.6332 3 15.1573 3C14.6814 3 14.3006 3.38074 14.3006 3.85667V4.35164H8.7608V3.85667C8.7608 3.38074 8.38005 3 7.90412 3C7.42819 3 7.04745 3.38074 7.04745 3.85667V4.35164H4.72491C3.50653 4.35164 2.49756 5.34157 2.49756 6.57899V18.1726C2.49756 19.391 3.48749 20.4 4.72491 20.4H18.3746C19.593 20.4 20.6019 19.4101 20.6019 18.1726V6.57899C20.5829 5.34157 19.593 4.35164 18.3555 4.35164ZM4.72491 6.06499H7.06648V6.55996C7.06648 7.03588 7.44723 7.41663 7.92316 7.41663C8.39909 7.41663 8.77983 7.03588 8.77983 6.55996V6.06499H14.3197V6.55996C14.3197 7.03588 14.7004 7.41663 15.1763 7.41663C15.6523 7.41663 16.033 7.03588 16.033 6.55996V6.06499H18.3746C18.6601 6.06499 18.8886 6.29343 18.8886 6.57899V8.84442H4.21091V6.57899C4.21091 6.29343 4.43935 6.06499 4.72491 6.06499ZM18.3555 18.6866H4.72491C4.43935 18.6866 4.21091 18.4582 4.21091 18.1726V10.5387H18.8886V18.1726C18.8695 18.4582 18.6411 18.6866 18.3555 18.6866Z" fill="#333333"/>
</svg>
