<svg width="80" height="80" viewBox="0 0 80 80" fill="none" xmlns="http://www.w3.org/2000/svg">
<circle cx="40" cy="40" r="40" fill="#D3E3FD"/>
<path d="M50.4166 54.5836C51.5971 54.5836 52.5784 54.2363 53.3603 53.5419C54.1423 52.8474 54.5499 51.8058 54.5833 50.4169C54.618 49.2363 54.2277 48.2467 53.4124 47.4481C52.5971 46.6495 51.5985 46.2502 50.4166 46.2502C49.2346 46.2502 48.2451 46.6495 47.4478 47.4481C46.6506 48.2467 46.2513 49.2363 46.2499 50.4169C46.2485 51.5974 46.6478 52.587 47.4478 53.3856C48.2478 54.1842 49.2374 54.5836 50.4166 54.5836ZM58.5416 61.4585L54.6874 57.6044C54.0624 57.9863 53.3937 58.2731 52.6812 58.4648C51.9687 58.6565 51.2138 58.7516 50.4166 58.7502C48.1249 58.7502 46.1631 57.9342 44.5312 56.3023C42.8992 54.6704 42.0833 52.7086 42.0833 50.4169C42.0833 48.1252 42.8992 46.1634 44.5312 44.5315C46.1631 42.8995 48.1249 42.0836 50.4166 42.0836C52.7083 42.0836 54.6701 42.8995 56.302 44.5315C57.934 46.1634 58.7499 48.1252 58.7499 50.4169C58.7499 51.2155 58.6548 51.9711 58.4645 52.6835C58.2742 53.3961 57.9874 54.0641 57.6041 54.6877L61.4583 58.5419C61.8402 58.9238 62.0312 59.4099 62.0312 60.0002C62.0312 60.5905 61.8402 61.0766 61.4583 61.4585C61.0763 61.8405 60.5902 62.0315 59.9999 62.0315C59.4096 62.0315 58.9235 61.8405 58.5416 61.4585ZM21.2499 56.6669C20.1041 56.6669 19.1235 56.2592 18.3083 55.444C17.493 54.6287 17.0846 53.6474 17.0833 52.5002V50.8336C17.0833 49.653 17.3874 48.5683 17.9958 47.5794C18.6041 46.5905 19.411 45.8349 20.4166 45.3127C22.5694 44.2363 24.7569 43.4294 26.9791 42.8919C29.2013 42.3544 31.4583 42.0849 33.7499 42.0836C34.3749 42.0836 34.9999 42.1099 35.6249 42.1627C36.2499 42.2155 36.8749 42.2759 37.4999 42.344C38.1944 42.4481 38.6895 42.8217 38.9853 43.4648C39.2812 44.1079 39.2548 44.7759 38.9062 45.469C38.5589 46.2676 38.3076 47.0752 38.152 47.8919C37.9964 48.7086 37.918 49.5502 37.9166 50.4169C37.9166 51.0072 37.9603 51.5974 38.0478 52.1877C38.1353 52.778 38.2652 53.3683 38.4374 53.9586C38.6458 54.653 38.5589 55.278 38.177 55.8336C37.7951 56.3891 37.2742 56.6669 36.6145 56.6669H21.2499ZM54.5833 31.6669C54.5833 33.9586 53.7673 35.9204 52.1353 37.5523C50.5034 39.1842 48.5416 40.0002 46.2499 40.0002C45.868 40.0002 45.3819 39.9572 44.7916 39.871C44.2013 39.7849 43.7152 39.6891 43.3333 39.5836C44.2708 38.4724 44.9916 37.2398 45.4958 35.8856C45.9999 34.5315 46.2513 33.1252 46.2499 31.6669C46.2485 30.2086 45.9971 28.8023 45.4958 27.4481C44.9944 26.094 44.2735 24.8613 43.3333 23.7502C43.8194 23.5766 44.3055 23.4634 44.7916 23.4106C45.2777 23.3579 45.7638 23.3322 46.2499 23.3335C48.5416 23.3335 50.5034 24.1495 52.1353 25.7815C53.7673 27.4134 54.5833 29.3752 54.5833 31.6669ZM33.7499 40.0002C31.4583 40.0002 29.4964 39.1842 27.8645 37.5523C26.2326 35.9204 25.4166 33.9586 25.4166 31.6669C25.4166 29.3752 26.2326 27.4134 27.8645 25.7815C29.4964 24.1495 31.4583 23.3335 33.7499 23.3335C36.0416 23.3335 38.0034 24.1495 39.6353 25.7815C41.2673 27.4134 42.0833 29.3752 42.0833 31.6669C42.0833 33.9586 41.2673 35.9204 39.6353 37.5523C38.0034 39.1842 36.0416 40.0002 33.7499 40.0002Z" fill="#0B57D0"/>
</svg>
