<svg width="24" height="24" viewBox="0 0 24 24" fill="none" xmlns="http://www.w3.org/2000/svg">
<path d="M21.25 9.94432C21.2488 10.5807 21.0505 11.2012 20.6823 11.7203C20.3142 12.2394 19.7942 12.6317 19.194 12.8433C18.8657 12.9666 18.5177 13.0293 18.167 13.0283C17.5306 13.0271 16.9102 12.8288 16.391 12.4606C15.8719 12.0925 15.4796 11.5725 15.268 10.9723C15.1446 10.6437 15.0819 10.2954 15.083 9.94432C15.086 10.2953 15.023 10.6443 14.898 10.9723C14.6865 11.5724 14.2943 12.0922 13.7754 12.4604C13.2565 12.8285 12.6362 13.0269 12 13.0283C11.3638 13.0269 10.7435 12.8285 10.2246 12.4604C9.70571 12.0922 9.31353 11.5724 9.102 10.9723C8.97862 10.6437 8.91594 10.2954 8.917 9.94432C8.919 10.2953 8.857 10.6443 8.732 10.9723C8.52041 11.5725 8.12809 12.0925 7.60896 12.4606C7.08984 12.8288 6.46942 13.0271 5.833 13.0283C5.483 13.0303 5.133 12.9683 4.806 12.8433C4.20578 12.6317 3.68584 12.2394 3.31768 11.7203C2.94951 11.2012 2.7512 10.5807 2.75 9.94432L3.212 8.32132L4.322 5.15532C4.46343 4.75287 4.72632 4.40425 5.07436 4.1576C5.42239 3.91094 5.83842 3.77842 6.265 3.77832H17.735C18.1614 3.77863 18.5772 3.91125 18.9251 4.15789C19.2729 4.40453 19.5356 4.75303 19.677 5.15532L20.787 8.32132L21.25 9.94432Z" stroke="#333333" stroke-width="1.5" stroke-linecap="round" stroke-linejoin="round"/>
<path d="M19.1937 12.8438V18.1677C19.1934 18.7127 18.9769 19.2352 18.5915 19.6206C18.2062 20.0059 17.6836 20.2225 17.1387 20.2227H6.85971C6.58976 20.2229 6.32243 20.1698 6.07299 20.0666C5.82355 19.9634 5.59689 19.812 5.40596 19.6212C5.21503 19.4304 5.06357 19.2038 4.96023 18.9544C4.8569 18.705 4.80371 18.4377 4.80371 18.1677V12.8438M8.91671 17.1397H15.0827" stroke="#333333" stroke-width="1.5" stroke-linecap="round" stroke-linejoin="round"/>
</svg>
